<?xml version="1.0" encoding="utf-8"?>
<svg version="1.1" xmlns:xlink="http://www.w3.org/1999/xlink" width="33px" height="30px" xmlns="http://www.w3.org/2000/svg">
  <g transform="matrix(1 0 0 1 -365 -459 )">
    <path d="M 20.23828125 18.3984375  C 21.976862980769234 16.817908653846153  22.846153846153847 14.915865384615383  22.846153846153847 12.692307692307693  C 22.846153846153847 10.468749999999998  21.976862980769234 8.56670673076923  20.23828125 6.986177884615384  C 18.49969951923077 5.4056490384615365  16.407451923076923 4.615384615384616  13.961538461538462 4.615384615384616  C 11.515625000000002 4.615384615384616  9.423377403846155 5.4056490384615365  7.6847956730769225 6.986177884615384  C 5.9462139423076925 8.56670673076923  5.0769230769230775 10.468749999999998  5.0769230769230775 12.692307692307693  C 5.0769230769230775 14.915865384615383  5.9462139423076925 16.817908653846153  7.6847956730769225 18.3984375  C 9.423377403846155 19.97896634615384  11.515625000000002 20.76923076923077  13.961538461538462 20.76923076923077  C 16.407451923076923 20.76923076923077  18.49969951923077 19.97896634615384  20.23828125 18.3984375  Z M 32.26622596153846 26.069711538461537  C 32.75540865384615 26.51442307692308  33 27.055288461538463  33 27.692307692307693  C 33 28.317307692307693  32.74879807692308 28.85817307692308  32.24639423076923 29.314903846153847  C 31.743990384615387 29.771634615384613  31.149038461538463 30  30.461538461538463 30  C 29.747596153846153 30  29.15264423076923 29.771634615384613  28.67668269230769 29.314903846153847  L 21.874399038461537 23.149038461538463  C 19.5078125 24.63942307692308  16.87019230769231 25.384615384615383  13.961538461538462 25.384615384615383  C 12.070913461538463 25.384615384615383  10.262920673076923 25.05108173076923  8.537560096153845 24.384014423076927  C 6.812199519230769 23.716947115384617  5.324819711538462 22.815504807692307  4.075420673076923 21.6796875  C 2.8260216346153846 20.543870192307693  1.8344350961538465 19.19170673076923  1.1006610576923077 17.623197115384617  C 0.3668870192307692 16.0546875  0 14.41105769230769  0 12.692307692307693  C 0 10.973557692307688  0.3668870192307692 9.329927884615385  1.1006610576923077 7.761418269230768  C 1.8344350961538465 6.192908653846153  2.8260216346153846 4.840745192307693  4.075420673076923 3.704927884615384  C 5.324819711538462 2.5691105769230784  6.812199519230769 1.6676682692307687  8.537560096153845 1.0006009615384626  C 10.262920673076923 0.3335336538461531  12.070913461538463 0  13.961538461538462 0  C 15.852163461538462 0  17.66015625 0.3335336538461531  19.385516826923077 1.0006009615384626  C 21.110877403846153 1.6676682692307687  22.598257211538463 2.5691105769230784  23.84765625 3.704927884615384  C 25.097055288461537 4.840745192307693  26.088641826923077 6.192908653846153  26.822415865384613 7.761418269230768  C 27.556189903846153 9.329927884615385  27.923076923076923 10.973557692307688  27.923076923076923 12.692307692307693  C 27.923076923076923 15.33653846153846  27.103365384615387 17.734374999999996  25.46394230769231 19.885817307692307  L 32.26622596153846 26.069711538461537  Z " fill-rule="nonzero" fill="#8400ff" stroke="none" transform="matrix(1 0 0 1 365 459 )" />
  </g>
</svg>