<?xml version="1.0" encoding="utf-8"?>
<svg version="1.1" xmlns:xlink="http://www.w3.org/1999/xlink" width="31px" height="30px" xmlns="http://www.w3.org/2000/svg">
  <g transform="matrix(1 0 0 1 -367 -586 )">
    <path d="M 29.418367346938776 5.996093749999999  C 29.88975590236095 6.191406250000001  30.255702280912367 6.471354166666664  30.516206482593038 6.835937500000001  C 31.012404961984792 7.578124999999999  31.12404961984794 8.417968750000002  30.851140456182474 9.355468750000002  L 25.734093637454983 27.05078125  C 25.4983993597439 27.884114583333336  25.023909563825534 28.583984375  24.31062424969988 29.150390625  C 23.597338935574232 29.716796875  22.837535014005603 30  22.031212484994 30  L 4.856542617046819 30  C 3.9013605442176873 30  2.9802921168467393 29.651692708333336  2.093337334933974 28.955078125  C 1.2063825530212087 28.258463541666668  0.5892356942777112 27.40234375  0.24189675870348137 26.38671875  C -0.05582232893157263 25.514322916666664  -0.06822729091636655 24.6875  0.20468187274909963 23.90625  C 0.20468187274909963 23.854166666666664  0.22328931572629052 23.678385416666664  0.26050420168067223 23.37890625  C 0.297719087635054 23.079427083333332  0.3225290116046419 22.838541666666668  0.3349339735894358 22.65625  C 0.3473389355742297 22.552083333333336  0.3287314925970388 22.412109375  0.27911164465786314 22.236328125  C 0.2294917967186875 22.060546875  0.2108843537414966 21.933593750000004  0.22328931572629052 21.85546875  C 0.24809923969587835 21.712239583333332  0.297719087635054 21.57552083333333  0.37214885954381755 21.4453125  C 0.44657863145258103 21.315104166666664  0.5489195678271308 21.162109374999996  0.679171668667467 20.986328124999996  C 0.8094237695078031 20.810546874999996  0.9117647058823529 20.657552083333332  0.9861944777911165 20.527343750000004  C 1.2715086034413767 20.03255208333333  1.5506202480992397 19.43684895833333  1.8235294117647058 18.740234375000004  C 2.096438575430172 18.043619791666668  2.282513005202081 17.447916666666664  2.381752701080432 16.953125000000004  C 2.418967587034814 16.822916666666664  2.4220688275310125 16.627604166666664  2.3910564225690276 16.367187500000004  C 2.360044017607043 16.106770833333336  2.356942777110844 15.924479166666663  2.381752701080432 15.8203125  C 2.418967587034814 15.677083333333332  2.5244097639055627 15.494791666666668  2.6980792316926774 15.273437499999998  C 2.871748699479792 15.052083333333336  2.9771908763505404 14.902343749999998  3.0144057623049223 14.82421875  C 3.274909963985594 14.35546875  3.5354141656662663 13.756510416666666  3.7959183673469385 13.027343749999998  C 4.056422569027611 12.298177083333332  4.211484593837535 11.712239583333332  4.261104441776711 11.269531249999998  C 4.273509403761505 11.152343749999998  4.258003201280512 10.944010416666666  4.214585834333733 10.644531250000002  C 4.171168467386955 10.345052083333332  4.174269707883154 10.162760416666664  4.223889555822329 10.097656249999998  C 4.273509403761505 9.928385416666664  4.409963985594238 9.729817708333329  4.633253301320528 9.501953125000002  C 4.856542617046819 9.274088541666666  4.992997198879552 9.127604166666666  5.0426170468187275 9.062500000000002  C 5.278311324529812 8.723958333333332  5.5419167667066835 8.173828125  5.83343337334934 7.412109375  C 6.124949979991997 6.650390625  6.295518207282914 6.022135416666666  6.345138055222089 5.527343749999999  C 6.357543017206883 5.4231770833333295  6.3389355742296924 5.25716145833333  6.289315726290516 5.029296874999999  C 6.239695878351341 4.801432291666664  6.227290916366547 4.62890625  6.2521008403361344 4.51171875  C 6.276910764305723 4.40755208333333  6.332733093237295 4.29036458333333  6.419567827130852 4.16015625  C 6.50640256102441 4.029947916666666  6.618047218887555 3.8802083333333304  6.754501800720288 3.710937499999999  C 6.890956382553022 3.5416666666666643  6.99639855942377 3.404947916666665  7.070828331332533 3.300781249999999  C 7.170068027210886 3.144531250000001  7.272408963585435 2.945963541666666  7.377851140456182 2.705078125000001  C 7.483293317326931 2.4641927083333295  7.576330532212886 2.236328125000001  7.656962785114045 2.021484375  C 7.737595038015207 1.806640624999999  7.836834733893559 1.572265624999999  7.9546818727490995 1.318359375  C 8.072529011604644 1.064453125000001  8.193477390956383 0.8561197916666652  8.317527010804321 0.6933593749999989  C 8.441576630652262 0.5305989583333293  8.60594237695078 0.3776041666666641  8.810624249699881 0.234375  C 9.015306122448981 0.09114583333332926  9.238595438175272 0.016276041666666297  9.480492196878751 0.00976562500000111  C 9.722388955582232 0.0032552083333292625  10.01700680272109 0.03906250000000111  10.364345738295318 0.1171875  L 10.345738295318128 0.17578125  C 10.817126850740296 0.05859375  11.133453381352542 0  11.294717887154862 0  L 25.45498199279712 0  C 26.37294917967187 0  27.080032012805123 0.3645833333333304  27.57623049219688 1.093750000000001  C 28.07242897158864 1.8229166666666652  28.18407362945178 2.6692708333333295  27.911164465786317 3.6328125  L 22.812725090036015 21.328125  C 22.366146458583433 22.877604166666664  21.92266906762705 23.876953125  21.482292917166866 24.326171875  C 21.041916766706684 24.775390625  20.24489795918367 25  19.09123649459784 25  L 2.9213685474189677 25  C 2.586434573829532 25  2.3507402961184476 25.09765625  2.214285714285714 25.29296875  C 2.0778311324529812 25.501302083333332  2.0716286514605846 25.78125  2.195678271308523 26.1328125  C 2.4933973589435774 27.044270833333336  3.3865546218487395 27.5  4.875150060024009 27  L 22.049819927971186 27  C 22.409563825530213 27.5  22.756902761104442 27.399088541666664  23.091836734693878 27.197265625  C 23.42677070828331 26.995442708333332  23.64385754301721 26.725260416666664  23.743097238895558 26.38671875  L 29.32533013205282 7.109374999999999  C 29.41216486594638 6.822916666666664  29.443177270908365 6.451822916666665  29.418367346938776 5.996093749999999  Z M 11.108643457382952 5.625  L 10.717887154861945 6.874999999999999  C 10.66826730692277 7.04427083333333  10.680672268907562 7.19075520833333  10.755102040816327 7.314453124999999  C 10.82953181272509 7.438151041666664  10.953581432573031 7.5  11.127250900360144 8  L 22.440576230492198 8  C 22.60184073629452 7.5  22.76000400160064 7.438151041666664  22.915066026410564 7.314453124999999  C 23.07012805122049 7.19075520833333  23.17246898759504 7.04427083333333  23.222088835534215 6.874999999999999  L 23.61284513805522 5.625  C 23.6624649859944 5.455729166666665  23.650060024009605 5.309244791666665  23.57563025210084 5.185546875  C 23.50120048019208 5.061848958333331  23.37715086034414 4.999999999999999  23.203481392557023 5  L 11.89015606242497 5  C 11.72889155662265 4.999999999999999  11.570728291316527 5.061848958333331  11.415666266506602 5.185546875  C 11.26060424169668 5.309244791666665  11.15826330532213 5.455729166666665  11.108643457382952 5.625  Z M 9.56422569027611 10.624999999999998  L 9.173469387755102 11.875000000000002  C 9.123849539815927 12.044270833333332  9.136254501800721 12.190755208333332  9.210684273709484 12.314453125000002  C 9.285114045618249 12.438151041666666  9.409163665466187 12.499999999999998  9.582833133253303 13  L 20.896158463385355 13  C 21.057422969187677 12.499999999999998  21.2155862344938 12.438151041666666  21.37064825930372 12.314453125000002  C 21.52571028411365 12.190755208333332  21.628051220488196 12.044270833333332  21.677671068427372 11.875000000000002  L 22.068427370948378 10.624999999999998  C 22.118047218887558 10.455729166666664  22.10564225690276 10.309244791666664  22.031212484994 10.185546874999998  C 21.956782713085232 10.061848958333334  21.832733093237298 10.000000000000002  21.65906362545018 10  L 10.345738295318128 10  C 10.184473789515808 10.000000000000002  10.026310524209684 10.061848958333334  9.87124849939976 10.185546874999998  C 9.716186474589838 10.309244791666664  9.613845538215287 10.455729166666664  9.56422569027611 10.624999999999998  Z " fill-rule="nonzero" fill="#d9001b" stroke="none" transform="matrix(1 0 0 1 367 586 )" />
  </g>
</svg>