<?xml version="1.0" encoding="utf-8"?>
<svg version="1.1" xmlns:xlink="http://www.w3.org/1999/xlink" width="31px" height="28px" xmlns="http://www.w3.org/2000/svg">
  <g transform="matrix(1 0 0 1 -367 -706 )">
    <path d="M 30.44 3.8653198653198664  C 30.81333333333334 4.305274971941637  31.000000000000007 4.839506172839506  31 5.468013468013468  C 31.000000000000007 6.096520763187427  30.81333333333334 6.630751964085295  30.44 7.070707070707069  L 15.96 24.134680134680135  L 13.24 27.34006734006734  C 12.866666666666667 27.780022446689113  12.413333333333336 28  11.88 28  C 11.346666666666668 28  10.893333333333334 27.780022446689113  10.52 27.34006734006734  L 7.799999999999999 24.134680134680135  L 0.56 15.602693602693606  C 0.18666666666666684 15.162738496071828  0 14.628507295173959  0 14  C 0 13.371492704826037  0.18666666666666684 12.83726150392817  0.56 12.397306397306398  L 3.28 9.191919191919192  C 3.6533333333333338 8.751964085297418  4.106666666666667 8.53198653198653  4.640000000000001 8.531986531986533  C 5.173333333333335 8.53198653198653  5.626666666666667 8.751964085297418  6 9.191919191919192  L 11.88 16.144781144781142  L 25 0.65993265993266  C 25.373333333333335 0.21997755331088564  25.82666666666667 0  26.36 0  C 26.893333333333334 0  27.346666666666668 0.21997755331088564  27.72 0.65993265993266  L 30.44 3.8653198653198664  Z " fill-rule="nonzero" fill="#038810" stroke="none" transform="matrix(1 0 0 1 367 706 )" />
  </g>
</svg>