<?xml version="1.0" encoding="utf-8"?>
<svg version="1.1" xmlns:xlink="http://www.w3.org/1999/xlink" width="52px" height="66px" xmlns="http://www.w3.org/2000/svg">
  <g transform="matrix(1 0 0 1 -413 -367 )">
    <path d="M 39.135416666666664 2.504464285714288  L 49.697916666666664 13.995535714285712  C 50.329861111111114 14.68303571428571  50.87152777777778 15.616071428571432  51.322916666666664 16.794642857142858  C 51.77430555555556 17.97321428571429  52 19.053571428571427  52 20.03571428571429  L 52 62.464285714285715  C 52 63.44642857142858  51.68402777777777 64.28125  51.052083333333336 64.96875  C 50.42013888888889 65.65625  49.65277777777778 66  48.75 66  L 3.25 66  C 2.3472222222222223 66  1.5798611111111112 65.65625  0.9479166666666667 64.96875  C 0.3159722222222222 64.28125  0 63.44642857142858  0 62.464285714285715  L 0 3.535714285714288  C 0 2.553571428571427  0.3159722222222222 1.7187499999999976  0.9479166666666667 1.03125  C 1.5798611111111112 0.34375000000000244  2.3472222222222223 0  3.25 0  L 33.583333333333336 0  C 34.486111111111114 0  35.479166666666664 0.24553571428571708  36.5625 0.7366071428571439  C 37.645833333333336 1.2276785714285707  38.50347222222223 1.816964285714283  39.135416666666664 2.504464285714288  Z M 36.0546875 5.8191964285714315  C 35.783854166666664 5.5245535714285685  35.32118055555556 5.254464285714278  34 5.0089285714285685  L 34 19  L 47.395833333333336 19  C 47.17013888888889 18.145089285714278  46.921875 17.64174107142857  46.651041666666664 17.34709821428571  L 36.0546875 5.8191964285714315  Z M 5 61  L 47 61  L 47 24  L 33.583333333333336 24  C 32.68055555555556 23.57142857142857  31.913194444444446 23.227678571428566  31.28125 22.54017857142857  C 30.649305555555554 21.85267857142857  30.333333333333336 21.017857142857135  30 20.03571428571429  L 30 5  L 5 5  L 5 61  Z M 25.322916666666668 30.6796875  C 26.564236111111114 34.70647321428571  28.211805555555554 37.628348214285715  30.265625 39.4453125  C 31.01041666666667 40.08370535714286  31.958333333333336 40.771205357142854  33.109375 41.5078125  C 34.44097222222223 41.33593749999999  35.76128472222223 41.25  37.0703125 41.25  C 40.388020833333336 41.25  42.385416666666664 41.85156249999999  43.0625 43.0546875  C 43.423611111111114 43.59486607142857  43.44618055555556 44.23325892857142  43.130208333333336 44.96986607142858  C 43.130208333333336 44.99441964285714  43.118923611111114 45.01897321428571  43.096354166666664 45.043526785714285  L 43.028645833333336 45.1171875  L 43.028645833333336 45.154017857142854  C 42.893229166666664 46.08705357142857  42.09201388888889 46.55357142857142  40.625 46.55357142857142  C 39.541666666666664 46.55357142857142  38.243923611111114 46.30803571428571  36.731770833333336 45.816964285714285  C 35.21961805555556 45.325892857142854  33.752604166666664 44.675223214285715  32.330729166666664 43.864955357142854  C 27.342881944444446 44.45424107142858  22.919270833333332 45.47321428571428  19.059895833333332 46.921875  C 15.606770833333332 53.354910714285715  12.875868055555557 56.57142857142858  10.8671875 56.57142857142858  C 10.528645833333334 56.57142857142858  10.21267361111111 56.48549107142858  9.919270833333334 56.31361607142858  L 9.106770833333334 55.871651785714285  C 9.08420138888889 55.84709821428571  9.016493055555557 55.78571428571429  8.903645833333334 55.6875  C 8.67795138888889 55.441964285714285  8.610243055555557 54.99999999999999  8.700520833333334 54.361607142857146  C 8.903645833333334 53.379464285714285  9.535590277777779 52.25613839285714  10.596354166666666 50.991629464285715  C 11.657118055555557 49.72712053571429  13.14670138888889 48.542410714285715  15.065104166666668 47.4375  C 15.38107638888889 47.216517857142854  15.640625000000004 47.29017857142858  15.84375 47.658482142857146  C 15.88888888888889 47.707589285714285  15.911458333333332 47.75669642857142  15.911458333333332 47.80580357142858  C 17.085069444444446 45.71874999999999  18.29253472222222 43.30022321428571  19.533854166666668 40.550223214285715  C 21.06857638888889 37.21093749999999  22.2421875 33.994419642857146  23.0546875 30.900669642857142  C 22.513020833333332 28.887276785714285  22.168836805555557 26.929129464285708  22.022135416666668 25.02622767857143  C 21.87543402777778 23.12332589285714  21.94878472222222 21.558035714285715  22.2421875 20.330357142857142  C 22.49045138888889 19.348214285714285  22.96440972222222 18.857142857142858  23.6640625 18.857142857142858  L 24.375 18.857142857142858  L 24.408854166666668 18.857142857142858  C 24.92795138888889 18.857142857142858  25.322916666666668 19.041294642857142  25.59375 19.40959821428571  C 26.000000000000007 19.92522321428571  26.101562500000007 20.760044642857135  25.8984375 21.9140625  C 25.853298611111114 22.06138392857143  25.80815972222222 22.159598214285708  25.763020833333332 22.208705357142858  C 25.78559027777778 22.28236607142857  25.796875 22.380580357142854  25.796875 22.50334821428571  L 25.796875 23.60825892857143  C 25.751736111111114 26.62834821428571  25.59375 28.98549107142857  25.322916666666668 30.6796875  Z M 12.44140625 51.857142857142854  C 11.617621527777779 52.93749999999999  11.059027777777779 53.845982142857146  10.765625 54.582589285714285  C 11.93923611111111 53.99330357142858  13.485243055555557 52.05357142857142  15.403645833333332 48.763392857142854  C 14.252604166666668 49.745535714285715  13.265190972222223 50.776785714285715  12.44140625 51.857142857142854  Z M 24.239583333333332 20.625  L 24.239583333333332 20.69866071428571  C 23.901041666666668 21.72991071428571  23.87847222222222 23.35044642857143  24.171875 25.560267857142858  C 24.194444444444446 25.38839285714285  24.2734375 24.848214285714278  24.408854166666668 23.939732142857142  C 24.408854166666668 23.86607142857143  24.48784722222222 23.338169642857135  24.645833333333332 22.35602678571429  C 24.66840277777778 22.257812499999996  24.713541666666668 22.159598214285708  24.78125 22.06138392857143  C 24.758680555555557 22.03683035714285  24.747395833333332 22.012276785714278  24.747395833333332 21.98772321428571  C 24.72482638888889 21.938616071428566  24.713541666666668 21.901785714285708  24.713541666666668 21.877232142857142  C 24.69097222222222 21.33705357142857  24.544270833333332 20.895089285714285  24.2734375 20.55133928571429  C 24.2734375 20.575892857142854  24.26215277777778 20.600446428571427  24.239583333333332 20.625  Z M 21.565104166666668 41.986607142857146  C 20.888020833333332 43.36160714285714  20.380208333333332 44.380580357142854  20.041666666666668 45.043526785714285  C 23.088541666666668 43.71763392857142  26.29340277777778 42.723214285714285  29.65625 42.060267857142854  C 29.611111111111114 42.035714285714285  29.464409722222225 41.91908482142857  29.216145833333336 41.710379464285715  C 28.967881944444446 41.50167410714286  28.787326388888896 41.33593749999999  28.674479166666664 41.213169642857146  C 26.959201388888896 39.56808035714286  25.52604166666667 37.40736607142857  24.375 34.731026785714285  C 23.765625 36.84263392857142  22.828993055555557 39.261160714285715  21.565104166666668 41.986607142857146  Z M 41.979166666666664 44.564732142857146  C 41.979166666666664 44.54017857142857  41.95659722222223 44.50334821428571  41.911458333333336 44.45424107142858  C 41.369791666666664 43.864955357142854  39.78993055555556 43.5703125  37.171875 43.5703125  C 38.88715277777778 44.25781249999999  40.286458333333336 44.6015625  41.369791666666664 44.6015625  C 41.68576388888889 44.6015625  41.88888888888889 44.58928571428571  41.979166666666664 44.564732142857146  Z " fill-rule="nonzero" fill="#000000" stroke="none" transform="matrix(1 0 0 1 413 367 )" />
  </g>
</svg>