<?xml version="1.0" encoding="utf-8"?>
<svg version="1.1" xmlns:xlink="http://www.w3.org/1999/xlink" width="37px" height="35px" xmlns="http://www.w3.org/2000/svg">
  <g transform="matrix(1 0 0 1 -638 -214 )">
    <path d="M 30.00055803571429 17.587890625  C 30.17950148809524 17.607421875  30.32403273809524 17.688802083333332  30.43415178571429 17.832031250000004  L 31.23939732142857 18.828125  C 31.34951636904762 18.971354166666668  31.394252232142858 19.124348958333332  31.37360491071429 19.287109374999996  C 31.35295758928571 19.449869791666668  31.273809523809522 19.583333333333332  31.13616071428571 19.6875  C 30.544270833333336 20.130208333333332  29.67364211309524 20.771484375000004  28.52427455357143 21.611328124999996  C 27.37490699404762 22.451171875  26.36662946428571 23.18684895833333  25.49944196428571 23.818359375  C 24.63225446428571 24.449869791666664  24.171130952380953 24.78515625  24.11607142857143 24.824218749999996  C 23.57924107142857 25.240885416666664  23.166294642857142 25.553385416666664  22.877232142857142 25.761718750000004  C 22.588169642857142 25.970052083333332  22.17178199404762 26.236979166666664  21.62806919642857 26.5625  C 21.084356398809522 26.888020833333336  20.557849702380953 27.125651041666664  20.048549107142858 27.275390625  C 19.539248511904763 27.425130208333336  19.029947916666668 27.5  18.52064732142857 27.5  L 18.5 27.5  L 18.47935267857143 27.5  C 17.970052083333336 27.5  17.46075148809524 27.425130208333336  16.951450892857142 27.275390625  C 16.44215029761905 27.125651041666664  15.919084821428571 26.888020833333336  15.382254464285715 26.5625  C 14.845424107142856 26.236979166666664  14.42559523809524 25.966796875000004  14.122767857142856 25.751953125  C 13.819940476190476 25.537109375  13.40699404761905 25.227864583333332  12.883928571428571 24.824218749999996  C 12.815104166666668 24.772135416666664  12.367745535714285 24.443359375  11.541852678571429 23.837890625  C 10.715959821428571 23.232421875000004  9.728329613095239 22.509765625  8.578962053571429 21.669921875  C 7.42959449404762 20.830078125  6.586495535714286 20.21484375  6.049665178571428 19.82421875  C 5.898251488095238 19.720052083333332  5.812220982142858 19.586588541666668  5.791573660714286 19.423828124999996  C 5.770926339285714 19.261067708333332  5.8156622023809526 19.108072916666668  5.92578125 18.96484375  L 6.689732142857142 17.94921875  C 6.799851190476191 17.805989583333332  6.947823660714286 17.721354166666664  7.133649553571428 17.695312500000004  C 7.319475446428572 17.669270833333332  7.488095238095238 17.714843749999996  7.639508928571428 17.832031250000004  C 8.933407738095239 18.782552083333332  11.039434523809526 20.319010416666664  13.957589285714285 22.44140625  C 14.026413690476192 22.493489583333332  14.325799851190476 22.721354166666664  14.855747767857144 23.125  C 15.38569568452381 23.52864583333333  15.802083333333334 23.831380208333332  16.104910714285715 24.033203125  C 16.407738095238095 24.235026041666668  16.796595982142858 24.446614583333332  17.271484375 24.667968750000004  C 17.746372767857142 24.889322916666664  18.148995535714285 25  18.47935267857143 25  L 18.5 25  L 18.52064732142857 25  C 18.851004464285715 25  19.253627232142858 24.889322916666664  19.728515625 24.667968750000004  C 20.203404017857146 24.446614583333332  20.59226190476191 24.235026041666668  20.89508928571429 24.033203125  C 21.197916666666668 23.831380208333332  21.614304315476193 23.52864583333333  22.144252232142858 23.125  C 22.674200148809522 22.721354166666664  22.97358630952381 22.493489583333332  23.04241071428571 22.44140625  C 26.59375 19.86328125  28.74795386904762 18.287760416666668  29.50502232142857 17.714843749999996  C 29.656436011904763 17.610677083333332  29.821614583333336 17.568359375  30.00055803571429 17.587890625  Z M 34.16099330357143 32.314453125  C 34.29175967261905 32.190755208333336  34.35714285714286 32.044270833333336  34 31.875  L 34 13.750000000000002  C 33.11830357142857 12.669270833333332  32.023995535714285 11.764322916666664  31.07421875 11.035156250000002  C 29.821614583333336 10.071614583333332  27.14434523809524 8.092447916666664  23.04241071428571 5.097656249999999  C 23.00111607142857 5.07161458333333  22.705171130952383 4.843749999999998  22.154575892857142 4.414062499999999  C 21.60398065476191 3.9843749999999996  21.18415178571429 3.6718750000000004  20.89508928571429 3.4765624999999982  C 20.60602678571429 3.28125  20.220610119047617 3.069661458333331  19.73883928571429 2.841796874999999  C 19.257068452380953 2.613932291666667  18.851004464285715 2.499999999999999  18.52064732142857 2.499999999999999  L 18.5 2.499999999999999  L 18.47935267857143 2.499999999999999  C 18.148995535714285 2.499999999999999  17.74293154761905 2.613932291666667  17.261160714285715 2.841796874999999  C 16.779389880952383 3.069661458333331  16.393973214285715 3.28125  16.104910714285715 3.4765624999999982  C 15.815848214285715 3.6718750000000004  15.396019345238097 3.9843749999999996  14.845424107142856 4.414062499999999  C 14.29482886904762 4.843749999999998  13.998883928571429 5.07161458333333  13.957589285714285 5.097656249999999  C 10.998139880952381 7.25911458333333  8.826729910714285 8.857421874999998  7.443359375 9.892578125  C 6.059988839285714 10.927734374999998  5.168712797619048 11.604817708333329  4.76953125 11.923828125000002  C 4.3703497023809526 12.242838541666664  3.8059895833333335 12.72786458333333  3.076450892857143 13.37890625  C 2.88374255952381 13.53515625  2.73921130952381 13.658854166666666  3 13.750000000000002  L 3 31.875  C 2.642857142857143 32.044270833333336  2.7082403273809526 32.190755208333336  2.839006696428571 32.314453125  C 2.9697730654761902 32.438151041666664  3.1246279761904763 32.5  3.303571428571429 32  L 33.69642857142857 32  C 33.875372023809526 32.5  34.03022693452381 32.438151041666664  34.16099330357143 32.314453125  Z M 36.15345982142857 11.9140625  C 36.71781994047619 12.408854166666666  37 13.02083333333333  37 13.750000000000002  L 37 31.875  C 37 32.734375  36.67652529761905 33.470052083333336  36.02957589285714 34.08203125  C 35.38262648809524 34.694010416666664  34.60491071428572 35  33.69642857142857 35  L 3.303571428571429 35  C 2.395089285714286 35  1.617373511904762 34.694010416666664  0.9704241071428572 34.08203125  C 0.3234747023809524 33.470052083333336  0 32.734375  0 31.875  L 0 13.750000000000002  C 0 13.02083333333333  0.28218005952380953 12.408854166666666  0.8465401785714285 11.9140625  C 2.539620535714286 10.429687499999998  4.948474702380952 8.53841145833333  8.073102678571429 6.240234374999999  C 11.197730654761905 3.9420572916666643  12.801339285714285 2.7604166666666647  12.883928571428571 2.695312500000001  C 13.379464285714285 2.3046875000000004  13.785528273809526 1.9954427083333304  14.102120535714285 1.7675781249999982  C 14.41871279761905 1.5397135416666663  14.841982886904761 1.2662760416666663  15.371930803571429 0.9472656249999983  C 15.901878720238097 0.6282552083333304  16.424944196428573 0.39062500000000056  16.941127232142858 0.2343750000000011  C 17.457310267857146 0.07812500000000167  17.970052083333336 0  18.47935267857143 0  L 18.5 0  L 18.52064732142857 0  C 19.029947916666668 0  19.542689732142858 0.07812500000000167  20.058872767857142 0.2343750000000011  C 20.57505580357143 0.39062500000000056  21.098121279761905 0.6282552083333304  21.62806919642857 0.9472656249999983  C 22.15801711309524 1.2662760416666663  22.581287202380953 1.5397135416666663  22.89787946428571 1.7675781249999982  C 23.21447172619048 1.9954427083333304  23.62053571428571 2.3046875000000004  24.11607142857143 2.695312500000001  C 24.70796130952381 3.1640624999999996  25.781622023809522 3.958333333333331  27.33705357142857 5.078124999999999  C 28.89248511904762 6.197916666666664  30.447916666666668 7.350260416666666  32.003348214285715 8.535156249999998  C 33.558779761904766 9.72005208333333  34.94215029761905 10.846354166666664  36.15345982142857 11.9140625  Z " fill-rule="nonzero" fill="#ffffff" stroke="none" fill-opacity="0.9921568627450981" transform="matrix(1 0 0 1 638 214 )" />
  </g>
</svg>